<svg width="134" height="66" viewBox="0 0 134 66" fill="none" xmlns="http://www.w3.org/2000/svg">
<path d="M2.00781 37V12.3906H5.06641V33.9766H15.2266V37H2.00781ZM17.1953 31.7969V23.1133C17.1953 22.0117 17.6875 20.9336 18.6719 19.8789C19.8906 18.6133 21.4141 17.9805 23.2422 17.9805V20.8281C21.8594 20.8281 20.8984 21.4023 20.3594 22.5508C20.1953 22.9023 20.1133 23.2539 20.1133 23.6055V31.3398C20.1133 32.207 20.5117 32.9453 21.3086 33.5547C21.8711 33.9766 22.5156 34.1875 23.2422 34.1875V37.0352C21.0156 37.0352 19.293 36.1328 18.0742 34.3281C17.4883 33.4375 17.1953 32.5938 17.1953 31.7969ZM24.7539 37.0352V34.1875C25.9961 34.1875 26.8867 33.625 27.4258 32.5C27.6133 32.125 27.707 31.7617 27.707 31.4102V23.6055C27.707 22.6445 27.2969 21.8828 26.4766 21.3203C25.9609 20.9922 25.375 20.8281 24.7188 20.8281V17.9805C26.875 17.9805 28.5391 18.8594 29.7109 20.6172C30.2969 21.4844 30.5898 22.3164 30.5898 23.1133V31.7969C30.5898 32.9453 30.0977 34.0586 29.1133 35.1367C27.9648 36.3789 26.5117 37.0117 24.7539 37.0352ZM32.7344 22.4102V19.5273H35.0547V17.4883C35.0547 16.1758 35.4883 14.9805 36.3555 13.9023C37.3164 12.7773 38.5586 12.2031 40.082 12.1797H41.3828L40.7148 15.0273H40.0469C38.7109 15.0977 38.0312 15.918 38.0078 17.4883V19.5625L40.3984 19.5273V22.4102H38.0078V37H35.0547V22.4102H32.7344ZM42.3672 21.0391V18.1914H44.6875V12.1094H47.6758V18.1914H49.9258V21.0742H47.6758V31.1641C47.6758 32.8281 48.3555 33.7539 49.7148 33.9414C49.9727 33.9883 50.2305 34.0117 50.4883 34.0117H50.9805L51.6484 37H50.3828C47.5 36.9766 45.7305 35.8984 45.0742 33.7656C44.8398 32.9688 44.7227 31.9844 44.7227 30.8125L44.6875 21.0391H42.3672ZM53.2305 37V12.3906H56.2891V23.1133H59.4531V26.1016H56.2891V37H53.2305ZM61.2109 26.1016V23.1133H64.3398V12.3906H67.4336V37H64.3398V26.1016H61.2109ZM70.1758 31.7969V23.1133C70.1758 22.0117 70.668 20.9336 71.6523 19.8789C72.8711 18.6133 74.3945 17.9805 76.2227 17.9805V20.8281C74.8398 20.8281 73.8789 21.4023 73.3398 22.5508C73.1758 22.9023 73.0938 23.2539 73.0938 23.6055V31.3398C73.0938 32.207 73.4922 32.9453 74.2891 33.5547C74.8516 33.9766 75.4961 34.1875 76.2227 34.1875V37.0352C73.9961 37.0352 72.2734 36.1328 71.0547 34.3281C70.4688 33.4375 70.1758 32.5938 70.1758 31.7969ZM77.7344 37.0352V34.1875C78.9766 34.1875 79.8672 33.625 80.4062 32.5C80.5938 32.125 80.6875 31.7617 80.6875 31.4102V23.6055C80.6875 22.6445 80.2773 21.8828 79.457 21.3203C78.9414 20.9922 78.3555 20.8281 77.6992 20.8281V17.9805C79.8555 17.9805 81.5195 18.8594 82.6914 20.6172C83.2773 21.4844 83.5703 22.3164 83.5703 23.1133V31.7969C83.5703 32.9453 83.0781 34.0586 82.0938 35.1367C80.9453 36.3789 79.4922 37.0117 77.7344 37.0352ZM86.2422 31.9375V18.0156H89.2305V31.5859C89.2305 32.4297 89.6523 33.1328 90.4961 33.6953C91.0586 34.0469 91.6797 34.2227 92.3594 34.2227V37.1758C90.1094 37.1758 88.375 36.2969 87.1562 34.5391C86.5469 33.6484 86.2422 32.7812 86.2422 31.9375ZM93.9062 37.1758V34.2227C95.1719 34.2227 96.0977 33.7188 96.6836 32.7109C96.8945 32.3359 97 31.9609 97 31.5859V18.0156H99.9883V31.9375C99.9883 33.0391 99.4844 34.1289 98.4766 35.207C97.2578 36.4961 95.7344 37.1523 93.9062 37.1758ZM102.027 32.0078L104.805 31.4805C104.805 32.5352 105.355 33.3672 106.457 33.9766C106.996 34.2344 107.512 34.375 108.004 34.3984V37.1758C105.73 37.1758 104.031 36.3555 102.906 34.7148C102.32 33.8477 102.027 32.9453 102.027 32.0078ZM102.203 23.3594C102.203 21.2266 103.176 19.6445 105.121 18.6133C106.059 18.1211 106.996 17.875 107.934 17.875V20.6172C106.855 20.6172 106.023 21.0625 105.438 21.9531C105.133 22.3984 104.98 22.8672 104.98 23.3594C104.98 24.1094 105.566 24.7188 106.738 25.1875C107.629 25.5625 109.352 26.0547 111.906 26.6641C113.5 26.9922 114.637 27.7773 115.316 29.0195C115.668 29.6758 115.844 30.4141 115.844 31.2344C115.844 33.4844 114.941 35.1484 113.137 36.2266C112.082 36.8594 110.875 37.1758 109.516 37.1758V34.3984C110.594 34.3984 111.496 34.0234 112.223 33.2734C112.738 32.7344 112.996 32.1016 112.996 31.375C112.996 30.4375 112.07 29.6875 110.219 29.125C109.75 28.9844 109 28.7852 107.969 28.5273C106.867 28.2695 106.07 28.0586 105.578 27.8945C103.797 27.1914 102.719 26.125 102.344 24.6953C102.25 24.2734 102.203 23.8281 102.203 23.3594ZM109.48 20.6523V17.875C111.496 17.875 113.125 18.625 114.367 20.125C115.141 21.0859 115.527 22.0938 115.527 23.1484L112.75 23.6055C112.75 22.3164 112.047 21.4141 110.641 20.8984C110.219 20.7344 109.832 20.6523 109.48 20.6523ZM117.918 31.7969V23.0781C117.941 22 118.457 20.9336 119.465 19.8789C120.684 18.6367 122.16 18.0039 123.895 17.9805V20.7578C122.77 20.7578 121.891 21.25 121.258 22.2344C121 22.6562 120.871 23.043 120.871 23.3945V25.7852H128.746V23.3945C128.746 22.3398 128.207 21.5664 127.129 21.0742C126.637 20.8398 126.133 20.7227 125.617 20.7227V17.9805C127.234 17.9805 128.676 18.5547 129.941 19.7031C130.996 20.7109 131.535 21.8242 131.559 23.043V28.6328H120.871V31.7969C120.871 32.4531 121.246 33.0625 121.996 33.625C122.605 34.0469 123.25 34.2578 123.93 34.2578V37C121.797 37 120.121 36.1328 118.902 34.3984C118.246 33.4844 117.918 32.6172 117.918 31.7969ZM125.617 37V34.2227C127.023 34.2227 128.078 33.6133 128.781 32.3945C128.922 32.1367 129.027 31.8906 129.098 31.6562L131.594 32.5703C131.172 34.1875 130.211 35.4062 128.711 36.2266C127.75 36.7422 126.719 37 125.617 37Z" fill="white"/>
<path d="M2.892 58.584L0.348 54.48H1.308L3.612 58.26H5.208V54.48H6.132V58.26H7.728L10.02 54.48H10.992L8.436 58.584L11.304 63H10.332L7.848 59.004H6.132V63H5.208V59.004H3.492L1.008 63H0.036L2.892 58.584ZM14.7038 61.74L19.9838 54.48H20.6798V63H19.8398V55.86L14.6438 63H13.8758V54.48H14.7038V61.74ZM26.2123 56.736C26.1163 57.864 25.9923 58.828 25.8403 59.628C25.6963 60.428 25.5123 61.084 25.2883 61.596C25.0723 62.1 24.8083 62.472 24.4963 62.712C24.1923 62.944 23.8323 63.06 23.4163 63.06L23.2723 62.256C23.4323 62.248 23.5843 62.216 23.7283 62.16C23.8803 62.104 24.0243 62.004 24.1603 61.86C24.2963 61.708 24.4243 61.504 24.5443 61.248C24.6643 60.984 24.7763 60.648 24.8803 60.24C24.9843 59.824 25.0763 59.324 25.1563 58.74C25.2443 58.156 25.3203 57.464 25.3843 56.664L25.5643 54.48H29.8963V63H29.0683V55.224H26.3323L26.2123 56.736ZM36.957 63.06C36.365 63.06 35.821 62.94 35.325 62.7C34.837 62.452 34.417 62.128 34.065 61.728C33.713 61.32 33.441 60.856 33.249 60.336C33.057 59.816 32.961 59.284 32.961 58.74C32.961 58.172 33.061 57.628 33.261 57.108C33.469 56.588 33.753 56.128 34.113 55.728C34.473 55.328 34.897 55.012 35.385 54.78C35.873 54.54 36.401 54.42 36.969 54.42C37.561 54.42 38.101 54.548 38.589 54.804C39.085 55.052 39.505 55.38 39.849 55.788C40.201 56.196 40.473 56.66 40.665 57.18C40.857 57.692 40.953 58.216 40.953 58.752C40.953 59.32 40.849 59.864 40.641 60.384C40.441 60.904 40.161 61.364 39.801 61.764C39.449 62.156 39.029 62.472 38.541 62.712C38.053 62.944 37.525 63.06 36.957 63.06ZM33.801 58.74C33.801 59.204 33.877 59.652 34.029 60.084C34.181 60.508 34.397 60.888 34.677 61.224C34.957 61.552 35.289 61.816 35.673 62.016C36.057 62.208 36.485 62.304 36.957 62.304C37.437 62.304 37.873 62.2 38.265 61.992C38.657 61.784 38.989 61.512 39.261 61.176C39.533 60.84 39.741 60.46 39.885 60.036C40.037 59.612 40.113 59.18 40.113 58.74C40.113 58.276 40.033 57.832 39.873 57.408C39.721 56.976 39.505 56.596 39.225 56.268C38.945 55.94 38.613 55.68 38.229 55.488C37.845 55.288 37.421 55.188 36.957 55.188C36.477 55.188 36.041 55.292 35.649 55.5C35.257 55.7 34.925 55.968 34.653 56.304C34.381 56.64 34.169 57.02 34.017 57.444C33.873 57.868 33.801 58.3 33.801 58.74ZM49.2567 52.008C49.2407 52.392 49.0767 52.7 48.7647 52.932C48.4607 53.156 48.0367 53.268 47.4927 53.268C46.9487 53.268 46.5207 53.156 46.2087 52.932C45.9047 52.7 45.7447 52.392 45.7287 52.008H46.2447C46.2447 52.112 46.2767 52.212 46.3407 52.308C46.4047 52.404 46.4927 52.488 46.6047 52.56C46.7167 52.632 46.8487 52.692 47.0007 52.74C47.1527 52.78 47.3207 52.8 47.5047 52.8C47.8487 52.8 48.1327 52.728 48.3567 52.584C48.5887 52.432 48.7207 52.24 48.7527 52.008H49.2567ZM44.8167 61.74L50.0967 54.48H50.7927V63H49.9527V55.86L44.7567 63H43.9887V54.48H44.8167V61.74ZM59.7319 58.26H61.0279L63.8119 54.48H64.7719L61.7839 58.584L65.0839 63H64.1239L61.0999 59.004H59.7319V63H58.9039V54.48H59.7319V58.26ZM70.6545 63.06C70.0625 63.06 69.5185 62.94 69.0225 62.7C68.5345 62.452 68.1145 62.128 67.7625 61.728C67.4105 61.32 67.1385 60.856 66.9465 60.336C66.7545 59.816 66.6585 59.284 66.6585 58.74C66.6585 58.172 66.7585 57.628 66.9585 57.108C67.1665 56.588 67.4505 56.128 67.8105 55.728C68.1705 55.328 68.5945 55.012 69.0825 54.78C69.5705 54.54 70.0985 54.42 70.6665 54.42C71.2585 54.42 71.7985 54.548 72.2865 54.804C72.7825 55.052 73.2025 55.38 73.5465 55.788C73.8985 56.196 74.1705 56.66 74.3625 57.18C74.5545 57.692 74.6505 58.216 74.6505 58.752C74.6505 59.32 74.5465 59.864 74.3385 60.384C74.1385 60.904 73.8585 61.364 73.4985 61.764C73.1465 62.156 72.7265 62.472 72.2385 62.712C71.7505 62.944 71.2225 63.06 70.6545 63.06ZM67.4985 58.74C67.4985 59.204 67.5745 59.652 67.7265 60.084C67.8785 60.508 68.0945 60.888 68.3745 61.224C68.6545 61.552 68.9865 61.816 69.3705 62.016C69.7545 62.208 70.1825 62.304 70.6545 62.304C71.1345 62.304 71.5705 62.2 71.9625 61.992C72.3545 61.784 72.6865 61.512 72.9585 61.176C73.2305 60.84 73.4385 60.46 73.5825 60.036C73.7345 59.612 73.8105 59.18 73.8105 58.74C73.8105 58.276 73.7305 57.832 73.5705 57.408C73.4185 56.976 73.2025 56.596 72.9225 56.268C72.6425 55.94 72.3105 55.68 71.9265 55.488C71.5425 55.288 71.1185 55.188 70.6545 55.188C70.1745 55.188 69.7385 55.292 69.3465 55.5C68.9545 55.7 68.6225 55.968 68.3505 56.304C68.0785 56.64 67.8665 57.02 67.7145 57.444C67.5705 57.868 67.4985 58.3 67.4985 58.74ZM85.2222 63V56.004L82.1142 61.416H81.6222L78.5142 56.004V63H77.6742V54.48H78.5382L81.8622 60.312L85.2102 54.48H86.0622V63H85.2222ZM89.6848 54.48H96.2608V63H95.4208V55.224H90.5128V63H89.6848V54.48ZM101.787 56.736C101.691 57.864 101.567 58.828 101.415 59.628C101.271 60.428 101.087 61.084 100.863 61.596C100.647 62.1 100.383 62.472 100.071 62.712C99.767 62.944 99.407 63.06 98.991 63.06L98.847 62.256C99.007 62.248 99.159 62.216 99.303 62.16C99.455 62.104 99.599 62.004 99.735 61.86C99.871 61.708 99.999 61.504 100.119 61.248C100.239 60.984 100.351 60.648 100.455 60.24C100.559 59.824 100.651 59.324 100.731 58.74C100.819 58.156 100.895 57.464 100.959 56.664L101.139 54.48H105.471V63H104.643V55.224H101.907L101.787 56.736ZM114.824 62.256V63H109.1V54.48H114.716V55.224H109.94V58.296H114.104V59.004H109.94V62.256H114.824ZM118.692 58.26H119.988L122.772 54.48H123.732L120.744 58.584L124.044 63H123.084L120.06 59.004H118.692V63H117.864V54.48H118.692V58.26ZM125.607 58.68C125.607 58.168 125.695 57.66 125.871 57.156C126.055 56.644 126.319 56.188 126.663 55.788C127.007 55.388 127.431 55.064 127.935 54.816C128.439 54.56 129.011 54.432 129.651 54.432C130.411 54.432 131.059 54.604 131.595 54.948C132.139 55.292 132.539 55.74 132.795 56.292L132.135 56.7C131.999 56.42 131.831 56.184 131.631 55.992C131.439 55.8 131.231 55.644 131.007 55.524C130.783 55.404 130.551 55.32 130.311 55.272C130.071 55.216 129.835 55.188 129.603 55.188C129.091 55.188 128.639 55.292 128.247 55.5C127.855 55.708 127.523 55.98 127.251 56.316C126.987 56.652 126.787 57.032 126.651 57.456C126.515 57.872 126.447 58.296 126.447 58.728C126.447 59.2 126.527 59.652 126.687 60.084C126.855 60.516 127.079 60.9 127.359 61.236C127.647 61.564 127.983 61.828 128.367 62.028C128.759 62.22 129.183 62.316 129.639 62.316C129.879 62.316 130.123 62.288 130.371 62.232C130.627 62.168 130.871 62.072 131.103 61.944C131.343 61.808 131.563 61.644 131.763 61.452C131.963 61.252 132.131 61.012 132.267 60.732L132.963 61.092C132.827 61.412 132.635 61.696 132.387 61.944C132.139 62.184 131.863 62.388 131.559 62.556C131.255 62.724 130.931 62.852 130.587 62.94C130.251 63.028 129.919 63.072 129.591 63.072C129.007 63.072 128.471 62.944 127.983 62.688C127.495 62.432 127.075 62.1 126.723 61.692C126.371 61.276 126.095 60.808 125.895 60.288C125.703 59.76 125.607 59.224 125.607 58.68Z" fill="white"/>
</svg>
